<svg width="54" height="48" viewBox="0 0 54 48" fill="none" xmlns="http://www.w3.org/2000/svg">
<path d="M11.7075 40V37H15.1028L19.7783 23.15C20.0009 22.5167 20.3998 22 20.975 21.6C21.5501 21.2 22.2088 21 22.9509 21H30.5207C31.2629 21 31.9215 21.2 32.4967 21.6C33.0718 22 33.4707 22.5167 33.6934 23.15L38.3689 37H41.7641V40H11.7075ZM18.6651 37H34.8066L30.4651 24H23.0066L18.6651 37ZM25.066 15V6H28.4056V15H25.066ZM38.1462 19.9L35.7528 17.75L42.8773 11.4L45.2151 13.5L38.1462 19.9ZM41.2075 29.5V26.5H51.2264V29.5H41.2075ZM15.3255 19.9L8.25659 13.5L10.5943 11.4L17.7189 17.75L15.3255 19.9ZM2.24527 29.5V26.5H12.2641V29.5H2.24527Z" fill="#FFFBFE"/>
</svg>
