<svg width="36" height="36" viewBox="0 0 36 36" fill="none" xmlns="http://www.w3.org/2000/svg">
<path d="M35.5478 14.7562C35.7599 15.9643 35.8656 17.1884 35.8638 18.4146C35.8638 23.8909 33.8859 28.5212 30.4438 31.6554H30.4484C27.4383 34.4071 23.3005 36 18.3944 36C13.5707 36 8.94452 34.1036 5.53364 30.7281C2.12276 27.3526 0.206543 22.7743 0.206543 18.0006C0.206543 13.2269 2.12276 8.64863 5.53364 5.27309C8.94452 1.89755 13.5707 0.00118771 18.3944 0.00118771C22.9094 -0.0511418 27.2697 1.62751 30.562 4.68553L25.3694 9.82436C23.4924 8.05362 20.9873 7.08393 18.3944 7.12445C13.6496 7.12445 9.61875 10.2923 8.18191 14.5582C7.42008 16.7935 7.42008 19.2144 8.18191 21.4497H8.18873C9.63239 25.7088 13.6564 28.8767 18.4012 28.8767C20.852 28.8767 22.9573 28.2558 24.5896 27.1578H24.5828C25.5306 26.5364 26.3414 25.7313 26.9662 24.7913C27.591 23.8512 28.0169 22.7956 28.2181 21.6882H18.3944V14.7584L35.5478 14.7562Z" fill="#49454F"/>
</svg>
