<svg width="211" height="205" viewBox="0 0 211 205" fill="none" xmlns="http://www.w3.org/2000/svg">
<path d="M149.215 26.6637C172.805 39.5553 195.076 53.1619 204.743 72.1648C214.272 91.3243 211.349 115.862 201.689 135.973C192.199 156.205 175.987 172.148 158.14 183.356C140.445 194.546 120.839 201.314 100.736 203.778C80.6327 206.242 59.9104 204.697 39.6696 197.89C32.4411 195.46 26.7965 193.177 20.5001 189.5C24.3024 180.556 19.5895 177.635 11.4992 183.5C3.2266 177.543 1.6101 174.195 0.500121 166C-1.62011 150.346 19.9754 144.017 21.5 119.5C23.0085 94.8441 1.66476 49.4832 9.94238 29.5323C18.3736 9.56363 47.2451 -0.526274 74.1267 0.44757C100.871 1.57801 125.779 13.7544 149.215 26.6637Z" fill="#CCC2DC"/>
</svg>
