<svg width="137" height="110" viewBox="0 0 137 110" fill="none" xmlns="http://www.w3.org/2000/svg">
<path d="M32.6048 58.2626C33.6227 57.4035 33.3525 55.4116 32.001 53.8135C31.4095 53.114 30.7088 52.606 30.0225 52.3278L29.2338 51.4185L19.0482 38.6692C19.0482 38.6692 13.4076 25.9863 11.7425 24.6161C10.0774 23.2459 8.11836 23.9593 8.11836 23.9593L6.58984 25.8485L16.1148 43.5568L25.8629 53.3571L27.1789 54.7277C27.3387 55.4501 27.7231 56.2251 28.3147 56.9246C29.6661 58.5226 31.5868 59.1217 32.6048 58.2626Z" fill="#A0616A"/>
<path d="M13.3779 26.9744L15.9304 30.714L19.5948 36.1318L13.0106 38.4072L7.19714 28.4421L13.3779 26.9744Z" fill="#E6E6E6"/>
<path d="M15.9694 14.247L14.1207 21.2879L7.07263 19.9028C7.07263 19.9028 9.84564 14.8241 9.15239 12.5156L15.9694 14.247Z" fill="#A0616A"/>
<path d="M8.52954 105.897L12.7738 105.897L14.7929 89.5425L8.52869 89.5429L8.52954 105.897Z" fill="#A0616A"/>
<path d="M23.0709 105.801C23.2031 106.023 23.2728 106.741 23.2728 107C23.2728 107.794 22.6279 108.439 21.8323 108.439H8.68822C8.14548 108.439 7.70549 107.999 7.70549 107.457V106.91C7.70549 106.91 7.05526 105.267 8.39396 103.242C8.39396 103.242 10.0578 104.828 12.544 102.344L13.2771 101.017L18.5841 104.895L21.5257 105.256C22.1693 105.335 22.7399 105.244 23.0709 105.801Z" fill="#2F2E41"/>
<path d="M20.314 58.5675L14.4656 98.325H7.12788L8.10358 75.6304L8.6171 63.6975L7.12788 58.0174C7.12788 58.0174 6.44889 56.7549 5.87688 55.2244C5.23213 53.4973 4.72288 51.4268 5.4789 50.445C5.75706 50.083 6.48028 49.8151 7.4631 49.6156C8.06364 49.4931 8.7626 49.3976 9.51719 49.3235C13.8565 48.8946 20.0287 49.1625 20.0287 49.1625L20.1856 54.3352L20.2727 57.2237L20.314 58.5675Z" fill="#2F2E41"/>
<path d="M1.05273 103.953L5.25194 104.569L9.63078 88.6823L3.43316 87.7725L1.05273 103.953Z" fill="#A0616A"/>
<path d="M15.4537 105.971C15.5521 106.21 15.5166 106.93 15.4789 107.186C15.3632 107.972 14.6313 108.516 13.8442 108.4L0.839918 106.49C0.302954 106.411 -0.0683667 105.913 0.0105822 105.376L0.0901795 104.835C0.0901795 104.835 -0.313893 103.115 1.30543 101.306C1.30543 101.306 2.72067 103.117 5.54204 101.021L6.46058 99.8147L11.1466 104.422L14.0042 105.207C14.6294 105.379 15.2073 105.372 15.4537 105.971Z" fill="#2F2E41"/>
<path d="M20.4064 51.9371L19.6043 58.8384L15.2296 73.3812L8.02824 97.3237L0.769409 96.258L7.28413 62.2154L6.63907 56.378C6.63907 56.378 6.42899 55.7977 6.18819 54.9483C5.71021 53.2677 5.11071 50.5309 5.77026 49.1349C5.85931 48.9451 5.97111 48.7805 6.10942 48.6471C6.36883 48.3958 6.89606 48.2432 7.60244 48.1623C10.555 47.8289 16.6355 48.7824 19.3412 49.2504L20.4064 51.9371Z" fill="#2F2E41"/>
<path d="M14.814 19.2102L22.7864 29.2521L21.3553 39.7216L20.1289 50.3747L5.68618 48.1817C5.68618 48.1817 8.80581 40.6791 9.15244 40.3328C9.49907 39.9865 10.3697 40.8418 9.76108 39.7216C9.15244 38.6015 8.45919 38.6015 9.0369 38.0243C9.61461 37.4472 4.53076 29.9446 4.53076 25.9048C4.53076 21.8649 6.95714 18.6331 6.95714 18.6331L14.814 19.2102Z" fill="#E6E6E6"/>
<path d="M12.9537 15.5765C15.9198 15.5765 18.3243 13.1744 18.3243 10.2113C18.3243 7.24824 15.9198 4.84619 12.9537 4.84619C9.98763 4.84619 7.58313 7.24824 7.58313 10.2113C7.58313 13.1744 9.98763 15.5765 12.9537 15.5765Z" fill="#A0616A"/>
<path d="M12.7028 20.4694C12.7028 20.4694 13.5065 14.117 13.6487 12.2697C13.791 10.4224 16.4012 7.53816 16.4012 7.53816L18.2504 9.03022C18.2504 9.03022 19.8151 9.03022 18.7483 6.7566C17.6814 4.48298 15.69 4.12773 15.69 4.12773C15.69 4.12773 15.4766 1.14361 11.7782 1.49886C8.07983 1.85411 6.444 4.83824 6.444 4.83824C6.444 4.83824 6.23063 1.07256 3.88357 3.84353C1.53651 6.6145 0.185177 7.75131 2.67448 8.67496C5.16379 9.59862 7.01298 8.88812 7.01298 8.88812C7.01298 8.88812 4.5948 9.38547 5.02154 11.0907C5.44828 12.7959 -0.597175 20.5404 2.17662 21.393C4.95042 22.2456 11.1381 24.3061 11.8493 22.9561C12.5606 21.6062 12.7028 20.4694 12.7028 20.4694Z" fill="#2F2E41"/>
<path d="M8.18919 67.666C9.52172 67.6792 10.6187 65.9941 10.6395 63.9023C10.6485 62.9866 10.4498 62.1448 10.1117 61.4865L10.1086 60.2832L10.7253 43.9829C10.7253 43.9829 14.7413 30.6972 14.3755 28.5733C14.0097 26.4495 12.0596 25.7122 12.0596 25.7122L9.66713 26.1462L5.30908 45.772L6.28826 59.5532L6.38932 61.4497C6.03832 62.1012 5.82296 62.9389 5.81395 63.8546C5.79321 65.9464 6.85666 67.6529 8.18919 67.666Z" fill="#A0616A"/>
<path d="M11.0735 23.5842C11.0735 23.5842 4.67858 34.9355 5.60025 38.1872L12.6887 38.4756C12.6887 38.4756 13.0758 38.7757 13.046 37.4028C13.0163 36.0299 14.6232 34.496 14.6232 34.496C14.6232 34.496 14.593 35.1651 14.3884 34.0277C14.1839 32.8903 18.0917 29.5667 18.0917 29.5667L11.0735 23.5842Z" fill="#E6E6E6"/>
<path d="M27.5717 55.4882L28.314 37.809C28.314 37.809 29.1478 27.3132 29.8149 23.648C30.482 19.9828 34.9848 20.9824 34.9848 20.9824L34.4844 31.4782L32.3258 42.2193L30.6457 56.8456C30.7322 57.2687 30.7812 57.7286 30.7812 58.2114C30.7812 60.2605 29.9247 61.9216 28.868 61.9216C27.8113 61.9216 26.9547 60.2605 26.9547 58.2114C26.9547 57.1336 27.1932 56.1661 27.5717 55.4882Z" fill="#FFB6B6"/>
<path d="M63.7061 50.9074C62.9167 49.9681 61.9713 49.3299 61.1224 49.0842L51.1381 37.809C51.1381 37.809 50.3042 27.3132 49.6372 23.648C48.9701 19.9828 44.4673 20.9824 44.4673 20.9824L44.9676 31.4782L47.8027 42.807L59.4859 52.7158C59.6899 53.0872 59.94 53.4583 60.2396 53.8148C61.661 55.506 63.5892 56.2262 64.5465 55.4233C65.5037 54.6204 65.1274 52.5986 63.7061 50.9074Z" fill="#FFB6B6"/>
<path d="M41.7386 19.5664L40.5804 15.1184L36.0684 14.9016L34.7185 21.033L41.7386 19.5664Z" fill="#FFB6B6"/>
<path opacity="0.1" d="M41.7386 19.5664L40.5804 15.1184L36.0684 14.9016L34.7185 21.033L41.7386 19.5664Z" fill="black"/>
<path d="M53.2611 92.4365L57.4871 92.1953L56.9327 105.151L54.0691 105.315L53.2611 92.4365Z" fill="#FFB6B6"/>
<path d="M57.2988 101.055L55.8314 101.724L55.8333 102.612C55.8333 102.612 55.4793 101.584 53.5791 101.359L53.3522 102.221C53.3522 102.221 52.6152 103.066 52.7416 104.595L53.2253 108.688L54.6584 108.655L54.8899 105.807C54.8899 105.807 55.2847 105.16 57.1031 108.232C57.1031 108.232 59.1062 108.736 62.2082 107.697C62.6345 107.554 62.9307 107.156 62.9251 106.707C62.922 106.459 62.825 106.23 62.5139 106.148C61.7219 105.939 60.9484 106.204 60.437 105.573C59.9255 104.941 57.2988 101.055 57.2988 101.055Z" fill="#2F2E41"/>
<path d="M30.58 92.4365L34.8059 92.1953L34.2515 105.151L31.388 105.315L30.58 92.4365Z" fill="#FFB6B6"/>
<path d="M34.6176 101.055L33.1503 101.724L33.1522 102.612C33.1522 102.612 32.7982 101.584 30.8979 101.359L30.6711 102.221C30.6711 102.221 29.9341 103.066 30.0605 104.595L30.5442 108.688L31.9773 108.655L32.2087 105.807C32.2087 105.807 32.6035 105.16 34.4219 108.232C34.4219 108.232 36.425 108.736 39.527 107.697C39.9534 107.554 40.2495 107.156 40.2439 106.707C40.2409 106.459 40.1439 106.23 39.8327 106.148C39.0407 105.939 38.2673 106.204 37.7558 105.573C37.2443 104.941 34.6176 101.055 34.6176 101.055Z" fill="#2F2E41"/>
<path d="M38.2699 17.7379C41.0331 17.7379 43.273 15.5003 43.273 12.7399C43.273 9.97962 41.0331 7.74194 38.2699 7.74194C35.5068 7.74194 33.2668 9.97962 33.2668 12.7399C33.2668 15.5003 35.5068 17.7379 38.2699 17.7379Z" fill="#FFB6B6"/>
<path d="M35.4329 13.5707C35.4329 13.5707 37.6326 9.97514 39.8345 10.372C42.0364 10.7688 43.1843 11.1272 43.1843 11.1272C43.1843 11.1272 44.081 8.26042 41.0706 6.88505C41.0706 6.88505 45.3308 3.32176 40.7903 1.03497C36.2499 -1.25183 33.4245 0.964445 33.4245 0.964445C33.4245 0.964445 29.6665 4.14826 33.833 7.09477C33.833 7.09477 30.2268 11.1985 33.8692 15.1184C33.8692 15.1184 33.2262 12.1336 34.1009 12.7455C34.9756 13.3574 35.4329 13.5707 35.4329 13.5707Z" fill="#2F2E41"/>
<path d="M34.9017 19.8997L41.7392 19.0667L46.9925 23.3149C46.9925 23.3149 49.6051 30.5871 47.6596 34.9769C47.6129 35.0821 47.5762 42.3906 47.5762 42.3906H33.0488C33.0488 42.3906 33.0629 37.4161 32.5078 35.6144C32.4285 35.357 32.3376 35.1644 32.2334 35.0602C31.3995 34.2272 29.3983 28.896 30.3989 26.5636C31.3995 24.2312 34.9017 19.8997 34.9017 19.8997Z" fill="#4F378B"/>
<path d="M47.6593 42.0574L56.8317 71.2124L58.8329 94.2031H53.2461L48.4932 72.8784L41.9478 60.5342L35.4851 95.8691H29.8458L29.9817 48.055L33.0604 42.0574H47.6593Z" fill="#2F2E41"/>
<path d="M89.3161 25.3567L88.4504 19.9519L94.2936 17.5737L95.1593 25.7891L89.3161 25.3567Z" fill="#A0616A"/>
<path opacity="0.1" d="M89.3161 25.3567L88.4504 19.9519L94.2936 17.5737L95.1593 25.7891L89.3161 25.3567Z" fill="black"/>
<path d="M63.6941 50.0683C62.7169 51.2378 62.5288 52.6895 63.274 53.3106C64.0191 53.9318 65.4151 53.4871 66.3925 52.317C66.7893 51.855 67.0696 51.3047 67.21 50.7123L71.2877 45.7047L69.3014 44.0989L65.1288 48.9774C64.5702 49.2213 64.0782 49.5954 63.6941 50.0683Z" fill="#A0616A"/>
<path d="M81.5155 25.3176L82.9348 30.9336L75.9885 42.0414L68.8974 49.1609L66.599 47.2561L73.7505 38.3669L79.1713 26.9134L81.5155 25.3176Z" fill="#E6E6E6"/>
<path d="M86.7194 96.917L85.4209 102.322L89.3164 103.403L90.182 97.5656L86.7194 96.917Z" fill="#A0616A"/>
<path d="M80.4434 79.4053L84.5553 82.8644L87.1522 86.9721L83.4732 89.3502L77.1971 82.2158L80.4434 79.4053Z" fill="#A0616A"/>
<path d="M81.7419 43.7332L78.2793 55.4077C78.2793 55.4077 62.9138 68.8118 64.4287 71.6223C65.9436 74.4328 76.1151 82.2158 76.1151 82.2158C76.1151 82.2158 75.3602 84.7046 77.5772 83.6764C79.7942 82.6482 82.1747 79.8377 82.1747 79.8377C82.1747 79.8377 82.1747 77.6757 81.0927 78.1081C80.0106 78.5405 75.033 72.7033 75.033 72.7033L86.6518 62.9148L85.8538 96.0123C85.8538 96.0123 83.2568 98.2806 85.8538 98.4636C88.4508 98.6466 89.9657 99.079 89.9657 99.079C89.9657 99.079 92.9955 97.9981 91.9134 96.9171L96.0253 79.1891L100.007 60.6146C100.472 58.4453 100.311 56.1887 99.5435 54.107L96.6746 46.3275L81.7419 43.7332Z" fill="#2F2E41"/>
<path d="M88.6666 101.673C88.6666 101.673 88.4502 100.809 87.5846 100.809H84.9407C84.9407 100.809 84.1219 104.484 84.3383 104.484C84.5547 104.484 80.8757 109.24 84.7712 109.456C88.6666 109.673 89.7487 109.24 89.7487 109.24L90.1815 107.534C90.1815 107.534 90.8308 106.43 90.6144 105.565C90.398 104.7 88.6666 101.673 88.6666 101.673Z" fill="#2F2E41"/>
<path d="M83.2565 87.6207C83.2565 87.6207 80.7708 87.5815 81.3644 88.2497C81.958 88.9178 83.0401 89.9988 83.0401 89.9988C83.0401 89.9988 85.6142 95.1875 86.8159 94.2146C88.0176 93.2417 89.9654 82.432 89.3161 81.1348C88.6669 79.8376 87.8012 79.8376 87.8012 79.8376L83.8085 82.2364C83.8085 82.2364 86.2863 88.2692 83.2565 87.6207Z" fill="#2F2E41"/>
<path d="M95.4841 24.5999L88.5588 22.8704L81.2007 25.2485C81.2007 25.2485 77.9544 34.3287 79.0365 37.5716C80.1186 40.8145 81.0248 45.8354 81.0248 45.8354C81.0248 45.8354 80.2268 44.3817 86.5028 46.3275C92.7789 48.2733 97.3236 48.0571 97.3236 48.0571L97.54 40.274L100.259 33.3608C101.421 30.4059 100.168 27.051 97.3531 25.5779L95.4841 24.5999Z" fill="#E6E6E6"/>
<path d="M91.569 22.0867C94.7978 22.0867 97.4153 19.4719 97.4153 16.2464C97.4153 13.0208 94.7978 10.406 91.569 10.406C88.3401 10.406 85.7227 13.0208 85.7227 16.2464C85.7227 19.4719 88.3401 22.0867 91.569 22.0867Z" fill="#A0616A"/>
<path d="M96.2907 20.0651C96.2907 20.0651 95.3913 20.9636 94.4918 21.4129C94.2334 21.542 94.2534 21.3558 94.4132 21.025C95.2241 19.3453 94.9124 17.3404 93.5924 16.0218L93.8173 14.674L86.1721 14.0001C86.1721 14.0001 85.2727 10.406 89.9947 9.73215C90.7973 9.61762 87.0715 9.50752 87.971 7.71049C88.8704 5.91345 89.545 6.36271 89.9947 5.01494C90.4444 3.66716 90.4444 2.54401 92.0184 2.76864C93.5924 2.99327 93.5924 3.89179 95.1664 2.99327C96.7404 2.09476 100.563 2.99327 99.8884 4.34105C99.2139 5.68883 98.0896 6.81197 98.989 7.71049C99.8884 8.60901 101.912 10.1814 100.338 11.3046C98.7642 12.4277 98.3144 13.1016 98.5393 13.5509C98.7642 14.0001 97.1901 13.1016 97.1901 13.1016C97.1901 13.1016 98.7642 16.2464 98.0896 17.3696C97.415 18.4927 96.2907 20.0651 96.2907 20.0651Z" fill="#2F2E41"/>
<path d="M129.305 38.8928H117.295V54.2093H129.305V38.8928Z" fill="#FFB6B6"/>
<path d="M118.061 11.323C117.452 10.1814 117.168 9.68411 117.295 9.02554C117.517 7.8687 118.811 7.23982 119.339 6.98333C121.034 6.15951 123.232 6.20872 124.961 7.23861C125.999 7.85735 126.554 8.64238 127.005 9.28081C127.409 9.85298 128.666 11.6321 128.538 13.8758C128.442 15.5601 127.671 15.6646 127.772 16.6838C128.024 19.2421 132.945 19.2054 134.16 22.0446C135.255 24.6048 133.06 28.858 129.816 30.4687C124.876 32.9208 119.53 28.243 118.572 27.4054C116.265 25.3871 114.74 22.6096 115.25 22.0446C115.549 21.7137 116.336 22.3744 117.55 22.0446C118.934 21.6686 119.668 20.3325 119.85 20.0024C120.898 18.096 120.283 16.0101 120.105 15.4074C119.94 14.8476 119.314 13.6727 118.061 11.323Z" fill="#2F2E41"/>
<path d="M111.629 106.305L108.127 106.304L106.461 92.8101L111.63 92.8104L111.629 106.305Z" fill="#FFB6B6"/>
<path d="M99.6304 106.225C99.5214 106.409 99.4639 107.001 99.4639 107.214C99.4639 107.87 99.996 108.402 100.652 108.402H111.498C111.946 108.402 112.309 108.039 112.309 107.592V107.14C112.309 107.14 112.845 105.785 111.741 104.114C111.741 104.114 110.368 105.422 108.316 103.373L107.712 102.278L103.333 105.477L100.905 105.776C100.374 105.841 99.9036 105.766 99.6304 106.225Z" fill="#2F2E41"/>
<path d="M131.817 106.305L128.315 106.304L126.649 92.8101L131.817 92.8104L131.817 106.305Z" fill="#FFB6B6"/>
<path d="M119.818 106.225C119.709 106.409 119.652 107.001 119.652 107.214C119.652 107.87 120.184 108.402 120.84 108.402H131.686C132.134 108.402 132.497 108.039 132.497 107.592V107.14C132.497 107.14 133.033 105.785 131.928 104.114C131.928 104.114 130.556 105.422 128.504 103.373L127.899 102.278L123.52 105.477L121.093 105.776C120.562 105.841 120.091 105.766 119.818 106.225Z" fill="#2F2E41"/>
<path d="M120.616 16.939L120.872 24.8526L130.071 26.1289L125.344 15.3853L120.616 16.939Z" fill="#FFB6B6"/>
<path d="M123.172 19.4918C126.136 19.4918 128.538 17.0917 128.538 14.131C128.538 11.1704 126.136 8.77026 123.172 8.77026C120.208 8.77026 117.806 11.1704 117.806 14.131C117.806 17.0917 120.208 19.4918 123.172 19.4918Z" fill="#FFB6B6"/>
<path d="M129.305 48.0827C129.305 48.0827 135.054 54.3369 131.477 59.953L131.988 78.0776C131.988 78.0776 134.117 91.2072 131.647 99.8313L127.388 99.5207L124.322 77.0565L121.256 62.2505L114.101 76.8012C114.101 76.8012 114.612 87.2675 112.056 98.4996H106.434L106.946 72.4615L116.273 45.2747L129.305 48.0827Z" fill="#2F2E41"/>
<path d="M120.872 21.7893L121.257 21.6494L126.493 19.7471C126.493 19.7471 133.137 24.8526 133.137 27.6606C133.137 30.4686 129.56 40.6797 129.56 40.6797C129.56 40.6797 134.415 45.7852 130.071 46.0404C125.727 46.2957 123.445 42.1586 116.29 45.2219L115.761 38.6374C115.761 38.6374 112.695 32.0003 114.228 30.4686L120.872 21.7893Z" fill="#8C1D18"/>
<path d="M128.14 61.3451C128.172 63.4299 129.276 65.1028 130.604 65.0817C131.932 65.0606 132.982 63.3536 132.949 61.2681C132.947 60.4348 132.745 59.6141 132.361 58.8746L132.11 50.043L128.614 50.151L128.651 58.9334C128.29 59.685 128.115 60.5119 128.14 61.3451Z" fill="#FFB6B6"/>
<path d="M129.97 22.3465C131.957 22.0224 133.76 23.5586 133.754 25.5702L132.703 57.2072L128.544 57.1094L127.236 25.591C127.221 23.9836 128.382 22.6055 129.97 22.3465Z" fill="#8C1D18"/>
<path d="M94.726 45.7723C93.0914 47.0689 92.4362 48.9624 93.2623 50.0015C94.0885 51.0405 96.0829 50.8315 97.7179 49.5343C98.3781 49.025 98.9067 48.3652 99.2593 47.6101L106.116 42.0291L103.899 39.3262L96.9519 44.708C96.1355 44.8801 95.3722 45.245 94.726 45.7723Z" fill="#FFB6B6"/>
<path d="M126.792 23.4545C128.26 24.831 128.14 27.1953 126.54 28.4159L100.791 46.8645L98.3339 43.5111L122.551 23.2668C123.817 22.2748 125.619 22.3546 126.792 23.4545Z" fill="#8C1D18"/>
<path d="M120.617 11.0679C120.008 9.92626 119.724 9.42898 119.85 8.77041C120.073 7.61357 121.367 6.9847 121.894 6.72821C123.59 5.90438 125.787 5.9536 127.516 6.98348C128.555 7.60223 129.11 8.38725 129.561 9.02568C129.965 9.59785 131.221 11.377 131.094 13.6206C130.998 15.3049 130.227 15.4095 130.327 16.4287C130.58 18.987 135.501 18.9503 136.716 21.7895C137.811 24.3497 135.616 28.6029 132.371 30.2135C127.432 32.6657 122.085 27.9878 121.128 27.1502C118.821 25.132 117.295 22.3544 117.806 21.7895C118.105 21.4586 118.892 22.1192 120.106 21.7895C121.49 21.4135 122.224 20.0774 122.406 19.7473C123.453 17.8408 122.839 15.755 122.661 15.1523C122.496 14.5924 121.87 13.4176 120.617 11.0679Z" fill="#2F2E41"/>
<path d="M92.3532 45.7357C90.8934 46.176 89.9374 47.2854 90.2181 48.2135C90.4987 49.1416 91.9095 49.5368 93.3699 49.0961C93.9556 48.9281 94.4926 48.6224 94.9358 48.2045L101.098 46.2609L100.322 43.8286L94.152 45.6123C93.5512 45.5094 92.9344 45.5517 92.3532 45.7357Z" fill="#A0616A"/>
<path d="M103.058 29.7885L96.5659 25.0322L96.7823 34.1124L102.842 41.8954L96.3495 44.4898L96.5659 48.194C96.5659 48.194 104.79 46.2193 106.088 46.0031C107.387 45.7869 108.469 42.7602 108.469 42.7602L103.058 29.7885Z" fill="#E6E6E6"/>
</svg>
