<svg width="236" height="230" viewBox="0 0 236 230" fill="none" xmlns="http://www.w3.org/2000/svg">
<path d="M167.215 41.6637C190.805 54.5553 213.076 68.1619 222.743 87.1648C232.272 106.324 229.349 130.862 219.689 150.973C210.199 171.205 193.988 187.148 176.14 198.356C158.445 209.546 138.839 216.314 118.736 218.778C98.6327 221.242 77.9104 219.697 57.6696 212.89C50.4411 210.46 44.7965 208.177 38.5001 204.5C42.3024 195.556 37.5895 192.635 29.4992 198.5C21.2266 192.543 19.6101 189.195 18.5001 181C16.3799 165.346 37.9754 159.017 39.5 134.5C41.0085 109.844 19.6648 64.4832 27.9424 44.5323C36.3736 24.5636 65.2451 14.4737 92.1267 15.4476C118.871 16.578 143.779 28.7544 167.215 41.6637Z" fill="#CCC2DC"/>
<path d="M83.6048 129.263C84.6227 128.403 84.3525 126.412 83.001 124.814C82.4095 124.114 81.7088 123.606 81.0225 123.328L80.2338 122.418L70.0482 109.669C70.0482 109.669 64.4076 96.9863 62.7425 95.6161C61.0774 94.2459 59.1184 94.9593 59.1184 94.9593L57.5898 96.8485L67.1148 114.557L76.8629 124.357L78.1789 125.728C78.3387 126.45 78.7231 127.225 79.3147 127.925C80.6661 129.523 82.5868 130.122 83.6048 129.263Z" fill="#A0616A"/>
<path d="M64.3779 97.9744L66.9304 101.714L70.5948 107.132L64.0106 109.407L58.1971 99.4421L64.3779 97.9744Z" fill="#E6E6E6"/>
<path d="M66.9694 85.247L65.1207 92.2879L58.0726 90.9028C58.0726 90.9028 60.8456 85.8241 60.1524 83.5156L66.9694 85.247Z" fill="#A0616A"/>
<path d="M59.5295 176.897L63.7738 176.897L65.7929 160.542L59.5287 160.543L59.5295 176.897Z" fill="#A0616A"/>
<path d="M74.0709 176.801C74.2031 177.023 74.2728 177.741 74.2728 178C74.2728 178.794 73.6279 179.439 72.8323 179.439H59.6882C59.1455 179.439 58.7055 178.999 58.7055 178.457V177.91C58.7055 177.91 58.0553 176.267 59.394 174.242C59.394 174.242 61.0578 175.828 63.544 173.344L64.2771 172.017L69.5841 175.895L72.5257 176.256C73.1693 176.335 73.7399 176.244 74.0709 176.801Z" fill="#2F2E41"/>
<path d="M71.314 129.567L65.4656 169.325H58.1279L59.1036 146.63L59.6171 134.697L58.1279 129.017C58.1279 129.017 57.4489 127.755 56.8769 126.224C56.2321 124.497 55.7229 122.427 56.4789 121.445C56.7571 121.083 57.4803 120.815 58.4631 120.616C59.0636 120.493 59.7626 120.398 60.5172 120.323C64.8565 119.895 71.0287 120.162 71.0287 120.162L71.1856 125.335L71.2727 128.224L71.314 129.567Z" fill="#2F2E41"/>
<path d="M52.0527 174.953L56.2519 175.569L60.6308 159.682L54.4332 158.772L52.0527 174.953Z" fill="#A0616A"/>
<path d="M66.4537 176.971C66.5521 177.21 66.5166 177.93 66.4789 178.186C66.3632 178.972 65.6313 179.516 64.8442 179.4L51.8399 177.49C51.303 177.411 50.9316 176.913 51.0106 176.376L51.0902 175.835C51.0902 175.835 50.6861 174.115 52.3054 172.306C52.3054 172.306 53.7207 174.117 56.542 172.021L57.4606 170.815L62.1466 175.422L65.0042 176.207C65.6294 176.379 66.2073 176.372 66.4537 176.971Z" fill="#2F2E41"/>
<path d="M71.4064 122.937L70.6043 129.838L66.2296 144.381L59.0282 168.324L51.7694 167.258L58.2841 133.215L57.6391 127.378C57.6391 127.378 57.429 126.798 57.1882 125.948C56.7102 124.268 56.1107 121.531 56.7703 120.135C56.8593 119.945 56.9711 119.78 57.1094 119.647C57.3688 119.396 57.8961 119.243 58.6024 119.162C61.555 118.829 67.6355 119.782 70.3412 120.25L71.4064 122.937Z" fill="#2F2E41"/>
<path d="M65.814 90.2102L73.7864 100.252L72.3553 110.722L71.1289 121.375L56.6862 119.182C56.6862 119.182 59.8058 111.679 60.1524 111.333C60.4991 110.987 61.3697 111.842 60.7611 110.722C60.1524 109.601 59.4592 109.601 60.0369 109.024C60.6146 108.447 55.5308 100.945 55.5308 96.9048C55.5308 92.8649 57.9571 89.6331 57.9571 89.6331L65.814 90.2102Z" fill="#E6E6E6"/>
<path d="M63.9537 86.5765C66.9198 86.5765 69.3243 84.1744 69.3243 81.2113C69.3243 78.2482 66.9198 75.8462 63.9537 75.8462C60.9876 75.8462 58.5831 78.2482 58.5831 81.2113C58.5831 84.1744 60.9876 86.5765 63.9537 86.5765Z" fill="#A0616A"/>
<path d="M63.7028 91.4694C63.7028 91.4694 64.5065 85.117 64.6487 83.2697C64.791 81.4224 67.4012 78.5382 67.4012 78.5382L69.2504 80.0302C69.2504 80.0302 70.8151 80.0302 69.7483 77.7566C68.6814 75.483 66.69 75.1277 66.69 75.1277C66.69 75.1277 66.4766 72.1436 62.7782 72.4989C59.0798 72.8541 57.444 75.8382 57.444 75.8382C57.444 75.8382 57.2306 72.0726 54.8836 74.8435C52.5365 77.6145 51.1852 78.7513 53.6745 79.675C56.1638 80.5986 58.013 79.8881 58.013 79.8881C58.013 79.8881 55.5948 80.3855 56.0215 82.0907C56.4483 83.7959 50.4028 91.5404 53.1766 92.393C55.9504 93.2456 62.1381 95.3061 62.8493 93.9561C63.5606 92.6062 63.7028 91.4694 63.7028 91.4694Z" fill="#2F2E41"/>
<path d="M59.1892 138.666C60.5217 138.679 61.6187 136.994 61.6395 134.902C61.6485 133.987 61.4498 133.145 61.1117 132.486L61.1086 131.283L61.7253 114.983C61.7253 114.983 65.7413 101.697 65.3755 99.5733C65.0097 97.4495 63.0596 96.7122 63.0596 96.7122L60.6671 97.1462L56.3091 116.772L57.2883 130.553L57.3893 132.45C57.0383 133.101 56.823 133.939 56.8139 134.855C56.7932 136.946 57.8567 138.653 59.1892 138.666Z" fill="#A0616A"/>
<path d="M62.0735 94.5842C62.0735 94.5842 55.6786 105.935 56.6002 109.187L63.6887 109.476C63.6887 109.476 64.0758 109.776 64.046 108.403C64.0163 107.03 65.6232 105.496 65.6232 105.496C65.6232 105.496 65.593 106.165 65.3884 105.028C65.1839 103.89 69.0917 100.567 69.0917 100.567L62.0735 94.5842Z" fill="#E6E6E6"/>
<path d="M78.5717 126.488L79.314 108.809C79.314 108.809 80.1478 98.3132 80.8149 94.648C81.482 90.9828 85.9848 91.9824 85.9848 91.9824L85.4844 102.478L83.3258 113.219L81.6457 127.846C81.7322 128.269 81.7812 128.729 81.7812 129.211C81.7812 131.261 80.9247 132.922 79.868 132.922C78.8113 132.922 77.9547 131.261 77.9547 129.211C77.9547 128.134 78.1932 127.166 78.5717 126.488Z" fill="#FFB6B6"/>
<path d="M114.706 121.907C113.917 120.968 112.971 120.33 112.122 120.084L102.138 108.809C102.138 108.809 101.304 98.3132 100.637 94.648C99.9701 90.9828 95.4673 91.9824 95.4673 91.9824L95.9676 102.478L98.8027 113.807L110.486 123.716C110.69 124.087 110.94 124.458 111.24 124.815C112.661 126.506 114.589 127.226 115.546 126.423C116.504 125.62 116.127 123.599 114.706 121.907Z" fill="#FFB6B6"/>
<path d="M92.7386 90.5664L91.5804 86.1184L87.0684 85.9016L85.7185 92.033L92.7386 90.5664Z" fill="#FFB6B6"/>
<path opacity="0.1" d="M92.7386 90.5664L91.5804 86.1184L87.0684 85.9016L85.7185 92.033L92.7386 90.5664Z" fill="black"/>
<path d="M104.261 163.436L108.487 163.195L107.933 176.151L105.069 176.315L104.261 163.436Z" fill="#FFB6B6"/>
<path d="M108.299 172.055L106.831 172.724L106.833 173.612C106.833 173.612 106.479 172.584 104.579 172.359L104.352 173.221C104.352 173.221 103.615 174.066 103.742 175.595L104.225 179.688L105.658 179.655L105.89 176.807C105.89 176.807 106.285 176.16 108.103 179.232C108.103 179.232 110.106 179.736 113.208 178.697C113.635 178.554 113.931 178.156 113.925 177.707C113.922 177.459 113.825 177.23 113.514 177.148C112.722 176.939 111.948 177.204 111.437 176.573C110.925 175.941 108.299 172.055 108.299 172.055Z" fill="#2F2E41"/>
<path d="M81.58 163.436L85.8059 163.195L85.2515 176.151L82.388 176.315L81.58 163.436Z" fill="#FFB6B6"/>
<path d="M85.6176 172.055L84.1503 172.724L84.1522 173.612C84.1522 173.612 83.7982 172.584 81.8979 172.359L81.6711 173.221C81.6711 173.221 80.9341 174.066 81.0605 175.595L81.5442 179.688L82.9773 179.655L83.2087 176.807C83.2087 176.807 83.6035 176.16 85.4219 179.232C85.4219 179.232 87.425 179.736 90.527 178.697C90.9534 178.554 91.2495 178.156 91.2439 177.707C91.2409 177.459 91.1439 177.23 90.8327 177.148C90.0407 176.939 89.2673 177.204 88.7558 176.573C88.2443 175.941 85.6176 172.055 85.6176 172.055Z" fill="#2F2E41"/>
<path d="M89.2699 88.7379C92.0331 88.7379 94.273 86.5003 94.273 83.7399C94.273 80.9796 92.0331 78.7419 89.2699 78.7419C86.5068 78.7419 84.2668 80.9796 84.2668 83.7399C84.2668 86.5003 86.5068 88.7379 89.2699 88.7379Z" fill="#FFB6B6"/>
<path d="M86.4329 84.5707C86.4329 84.5707 88.6326 80.9751 90.8345 81.372C93.0364 81.7688 94.1843 82.1272 94.1843 82.1272C94.1843 82.1272 95.081 79.2604 92.0706 77.885C92.0706 77.885 96.3308 74.3218 91.7903 72.035C87.2499 69.7482 84.4245 71.9644 84.4245 71.9644C84.4245 71.9644 80.6665 75.1483 84.833 78.0948C84.833 78.0948 81.2268 82.1985 84.8692 86.1184C84.8692 86.1184 84.2262 83.1336 85.1009 83.7455C85.9756 84.3574 86.4329 84.5707 86.4329 84.5707Z" fill="#2F2E41"/>
<path d="M85.9017 90.8997L92.7392 90.0667L97.9925 94.3149C97.9925 94.3149 100.605 101.587 98.6596 105.977C98.6129 106.082 98.5762 113.391 98.5762 113.391H84.0488C84.0488 113.391 84.0629 108.416 83.5078 106.614C83.4285 106.357 83.3376 106.164 83.2334 106.06C82.3995 105.227 80.3983 99.896 81.3989 97.5636C82.3995 95.2312 85.9017 90.8997 85.9017 90.8997Z" fill="#4F378B"/>
<path d="M98.6593 113.057L107.832 142.212L109.833 165.203H104.246L99.4932 143.878L92.9478 131.534L86.4851 166.869H80.8458L80.9817 119.055L84.0604 113.057H98.6593Z" fill="#2F2E41"/>
<path d="M140.316 96.3567L139.45 90.9519L145.294 88.5737L146.159 96.7891L140.316 96.3567Z" fill="#A0616A"/>
<path opacity="0.1" d="M140.316 96.3567L139.45 90.9519L145.294 88.5737L146.159 96.7891L140.316 96.3567Z" fill="black"/>
<path d="M114.694 121.068C113.717 122.238 113.529 123.689 114.274 124.311C115.019 124.932 116.415 124.487 117.392 123.317C117.789 122.855 118.07 122.305 118.21 121.712L122.288 116.705L120.301 115.099L116.129 119.977C115.57 120.221 115.078 120.595 114.694 121.068Z" fill="#A0616A"/>
<path d="M132.516 96.3176L133.935 101.934L126.988 113.041L119.897 120.161L117.599 118.256L124.751 109.367L130.171 97.9134L132.516 96.3176Z" fill="#E6E6E6"/>
<path d="M137.719 167.917L136.421 173.322L140.316 174.403L141.182 168.566L137.719 167.917Z" fill="#A0616A"/>
<path d="M131.443 150.405L135.555 153.864L138.152 157.972L134.473 160.35L128.197 153.216L131.443 150.405Z" fill="#A0616A"/>
<path d="M132.742 114.733L129.279 126.408C129.279 126.408 113.914 139.812 115.429 142.622C116.944 145.433 127.115 153.216 127.115 153.216C127.115 153.216 126.36 155.705 128.577 154.676C130.794 153.648 133.175 150.838 133.175 150.838C133.175 150.838 133.175 148.676 132.093 149.108C131.011 149.541 126.033 143.703 126.033 143.703L137.652 133.915L136.854 167.012C136.854 167.012 134.257 169.281 136.854 169.464C139.451 169.647 140.966 170.079 140.966 170.079C140.966 170.079 143.995 168.998 142.913 167.917L147.025 150.189L151.007 131.615C151.472 129.445 151.311 127.189 150.544 125.107L147.675 117.328L132.742 114.733Z" fill="#2F2E41"/>
<path d="M139.667 172.673C139.667 172.673 139.45 171.809 138.585 171.809H135.941C135.941 171.809 135.122 175.484 135.338 175.484C135.555 175.484 131.876 180.24 135.771 180.456C139.667 180.673 140.749 180.24 140.749 180.24L141.182 178.534C141.182 178.534 141.831 177.43 141.614 176.565C141.398 175.7 139.667 172.673 139.667 172.673Z" fill="#2F2E41"/>
<path d="M134.256 158.621C134.256 158.621 131.771 158.581 132.364 159.25C132.958 159.918 134.04 160.999 134.04 160.999C134.04 160.999 136.614 166.187 137.816 165.215C139.018 164.242 140.965 153.432 140.316 152.135C139.667 150.838 138.801 150.838 138.801 150.838L134.809 153.236C134.809 153.236 137.286 159.269 134.256 158.621Z" fill="#2F2E41"/>
<path d="M146.484 95.5999L139.559 93.8704L132.201 96.2485C132.201 96.2485 128.954 105.329 130.037 108.572C131.119 111.815 132.025 116.835 132.025 116.835C132.025 116.835 131.227 115.382 137.503 117.327C143.779 119.273 148.324 119.057 148.324 119.057L148.54 111.274L151.259 104.361C152.421 101.406 151.168 98.051 148.353 96.5779L146.484 95.5999Z" fill="#E6E6E6"/>
<path d="M142.569 93.0867C145.798 93.0867 148.415 90.4719 148.415 87.2464C148.415 84.0208 145.798 81.406 142.569 81.406C139.34 81.406 136.723 84.0208 136.723 87.2464C136.723 90.4719 139.34 93.0867 142.569 93.0867Z" fill="#A0616A"/>
<path d="M147.291 91.0651C147.291 91.0651 146.391 91.9636 145.492 92.4129C145.233 92.542 145.253 92.3558 145.413 92.025C146.224 90.3453 145.912 88.3404 144.592 87.0218L144.817 85.674L137.172 85.0001C137.172 85.0001 136.273 81.406 140.995 80.7322C141.797 80.6176 138.072 80.5075 138.971 78.7105C139.87 76.9135 140.545 77.3627 140.995 76.0149C141.444 74.6672 141.444 73.544 143.018 73.7686C144.592 73.9933 144.592 74.8918 146.166 73.9933C147.74 73.0948 151.563 73.9933 150.888 75.341C150.214 76.6888 149.09 77.812 149.989 78.7105C150.888 79.609 152.912 81.1814 151.338 82.3046C149.764 83.4277 149.314 84.1016 149.539 84.5509C149.764 85.0001 148.19 84.1016 148.19 84.1016C148.19 84.1016 149.764 87.2464 149.09 88.3696C148.415 89.4927 147.291 91.0651 147.291 91.0651Z" fill="#2F2E41"/>
<path d="M180.305 109.893H168.295V125.209H180.305V109.893Z" fill="#FFB6B6"/>
<path d="M169.061 82.323C168.452 81.1814 168.168 80.6841 168.295 80.0255C168.517 78.8687 169.811 78.2398 170.339 77.9833C172.034 77.1595 174.232 77.2087 175.961 78.2386C176.999 78.8574 177.554 79.6424 178.005 80.2808C178.409 80.853 179.666 82.6321 179.538 84.8758C179.442 86.5601 178.671 86.6646 178.772 87.6838C179.024 90.2421 183.945 90.2054 185.16 93.0446C186.255 95.6048 184.06 99.858 180.816 101.469C175.876 103.921 170.53 99.243 169.572 98.4054C167.265 96.3871 165.74 93.6096 166.25 93.0446C166.549 92.7137 167.336 93.3744 168.55 93.0446C169.934 92.6686 170.668 91.3325 170.85 91.0024C171.898 89.096 171.283 87.0101 171.105 86.4074C170.94 85.8476 170.314 84.6727 169.061 82.323Z" fill="#2F2E41"/>
<path d="M162.629 177.305L159.127 177.304L157.461 163.81L162.63 163.81L162.629 177.305Z" fill="#FFB6B6"/>
<path d="M150.63 177.225C150.521 177.409 150.464 178.001 150.464 178.214C150.464 178.87 150.996 179.402 151.652 179.402H162.498C162.946 179.402 163.309 179.039 163.309 178.592V178.14C163.309 178.14 163.845 176.785 162.741 175.114C162.741 175.114 161.368 176.422 159.316 174.373L158.712 173.278L154.333 176.477L151.905 176.776C151.374 176.841 150.904 176.766 150.63 177.225Z" fill="#2F2E41"/>
<path d="M182.817 177.305L179.315 177.304L177.649 163.81L182.817 163.81L182.817 177.305Z" fill="#FFB6B6"/>
<path d="M170.818 177.225C170.709 177.409 170.652 178.001 170.652 178.214C170.652 178.87 171.184 179.402 171.84 179.402H182.686C183.134 179.402 183.497 179.039 183.497 178.592V178.14C183.497 178.14 184.033 176.785 182.928 175.114C182.928 175.114 181.556 176.422 179.504 174.373L178.899 173.278L174.52 176.477L172.093 176.776C171.562 176.841 171.091 176.766 170.818 177.225Z" fill="#2F2E41"/>
<path d="M171.616 87.939L171.872 95.8526L181.071 97.1289L176.344 86.3853L171.616 87.939Z" fill="#FFB6B6"/>
<path d="M174.172 90.4918C177.136 90.4918 179.538 88.0917 179.538 85.131C179.538 82.1704 177.136 79.7703 174.172 79.7703C171.208 79.7703 168.806 82.1704 168.806 85.131C168.806 88.0917 171.208 90.4918 174.172 90.4918Z" fill="#FFB6B6"/>
<path d="M180.305 119.083C180.305 119.083 186.054 125.337 182.477 130.953L182.988 149.078C182.988 149.078 185.117 162.207 182.647 170.831L178.388 170.521L175.322 148.056L172.256 133.25L165.101 147.801C165.101 147.801 165.612 158.267 163.056 169.5H157.434L157.946 143.461L167.273 116.275L180.305 119.083Z" fill="#2F2E41"/>
<path d="M171.872 92.7893L172.257 92.6494L177.493 90.7471C177.493 90.7471 184.137 95.8526 184.137 98.6606C184.137 101.469 180.56 111.68 180.56 111.68C180.56 111.68 185.415 116.785 181.071 117.04C176.727 117.296 174.445 113.159 167.29 116.222L166.761 109.637C166.761 109.637 163.695 103 165.228 101.469L171.872 92.7893Z" fill="#8C1D18"/>
<path d="M179.14 132.345C179.172 134.43 180.276 136.103 181.604 136.082C182.932 136.061 183.982 134.354 183.949 132.268C183.947 131.435 183.745 130.614 183.361 129.875L183.11 121.043L179.614 121.151L179.651 129.933C179.29 130.685 179.115 131.512 179.14 132.345Z" fill="#FFB6B6"/>
<path d="M180.97 93.3465C182.957 93.0224 184.76 94.5586 184.754 96.5702L183.703 128.207L179.544 128.109L178.236 96.591C178.221 94.9836 179.382 93.6055 180.97 93.3465Z" fill="#8C1D18"/>
<path d="M145.726 116.772C144.091 118.069 143.436 119.962 144.262 121.001C145.088 122.041 147.083 121.832 148.718 120.534C149.378 120.025 149.907 119.365 150.259 118.61L157.116 113.029L154.899 110.326L147.952 115.708C147.135 115.88 146.372 116.245 145.726 116.772Z" fill="#FFB6B6"/>
<path d="M177.792 94.4545C179.26 95.831 179.14 98.1953 177.54 99.4159L151.791 117.865L149.334 114.511L173.551 94.2668C174.817 93.2748 176.619 93.3546 177.792 94.4545Z" fill="#8C1D18"/>
<path d="M171.617 82.0679C171.008 80.9263 170.724 80.429 170.85 79.7704C171.073 78.6136 172.367 77.9847 172.894 77.7282C174.59 76.9044 176.787 76.9536 178.516 77.9835C179.555 78.6022 180.11 79.3872 180.561 80.0257C180.965 80.5978 182.221 82.377 182.094 84.6206C181.998 86.3049 181.227 86.4095 181.327 87.4287C181.58 89.987 186.501 89.9503 187.716 92.7895C188.811 95.3497 186.616 99.6029 183.371 101.214C178.432 103.666 173.085 98.9878 172.128 98.1502C169.821 96.132 168.295 93.3544 168.806 92.7895C169.105 92.4586 169.892 93.1192 171.106 92.7895C172.49 92.4135 173.224 91.0774 173.406 90.7473C174.453 88.8408 173.839 86.755 173.661 86.1523C173.496 85.5924 172.87 84.4176 171.617 82.0679Z" fill="#2F2E41"/>
<path d="M143.353 116.736C141.893 117.176 140.937 118.285 141.218 119.213C141.499 120.142 142.91 120.537 144.37 120.096C144.956 119.928 145.493 119.622 145.936 119.205L152.098 117.261L151.322 114.829L145.152 116.612C144.551 116.509 143.934 116.552 143.353 116.736Z" fill="#A0616A"/>
<path d="M154.058 100.789L147.566 96.0322L147.782 105.112L153.842 112.895L147.349 115.49L147.566 119.194C147.566 119.194 155.79 117.219 157.088 117.003C158.387 116.787 159.469 113.76 159.469 113.76L154.058 100.789Z" fill="#E6E6E6"/>
</svg>
